<?xml version="1.0" encoding="UTF-8" standalone="no"?>
<!-- Generator: Adobe Illustrator 23.0.4, SVG Export Plug-In . SVG Version: 6.00 Build 0)  -->

<svg
   version="1.1"
   id="bottom-frame"
   x="0px"
   y="0px"
   viewBox="0 0 279.1 346.6"
   style="enable-background:new 0 0 279.1 346.6;"
   xml:space="preserve"
   sodipodi:docname="qr-code.svg"
   inkscape:version="1.1.1 (eb90963e84, 2021-10-02)"
   xmlns:inkscape="http://www.inkscape.org/namespaces/inkscape"
   xmlns:sodipodi="http://sodipodi.sourceforge.net/DTD/sodipodi-0.dtd"
   xmlns="http://www.w3.org/2000/svg"
   xmlns:svg="http://www.w3.org/2000/svg"><defs
   id="defs21675"><rect
     x="32.803913"
     y="377.24008"
     width="653.23608"
     height="235.95847"
     id="rect6220" /></defs><sodipodi:namedview
   id="namedview21673"
   pagecolor="#505050"
   bordercolor="#eeeeee"
   borderopacity="1"
   inkscape:pageshadow="0"
   inkscape:pageopacity="0"
   inkscape:pagecheckerboard="0"
   showgrid="false"
   inkscape:zoom="2.5187536"
   inkscape:cx="123.67228"
   inkscape:cy="268.58523"
   inkscape:window-width="2560"
   inkscape:window-height="1376"
   inkscape:window-x="0"
   inkscape:window-y="27"
   inkscape:window-maximized="1"
   inkscape:current-layer="bottom-frame" />
<style
   type="text/css"
   id="style21197">
	.frame-color{fill:#000000;}
	.background-color{fill:#FFFFFF;}
	.text-color{fill:#FFFFFF;}
</style>

<svg
   version="1.1"
   width="259.9"
   height="259.9"
   viewBox="0 0 2000 2000"
   x="9.7"
   y="9.6"
   shape-rendering="crispEdges"
   id="svg21664"><defs
   id="defs21199" /><rect
   x="0"
   y="0"
   width="2000"
   height="2000"
   fill="#ffffff"
   id="rect21201" /><rect
   x="776"
   y="200"
   width="64"
   height="64"
   fill="#111926"
   id="rect21203" /><rect
   x="1096"
   y="200"
   width="64"
   height="64"
   fill="#111926"
   id="rect21205" /><rect
   x="1224"
   y="200"
   width="64"
   height="64"
   fill="#111926"
   id="rect21207" /><rect
   x="712"
   y="264"
   width="64"
   height="64"
   fill="#111926"
   id="rect21209" /><rect
   x="776"
   y="264"
   width="64"
   height="64"
   fill="#111926"
   id="rect21211" /><rect
   x="904"
   y="264"
   width="64"
   height="64"
   fill="#111926"
   id="rect21213" /><rect
   x="968"
   y="264"
   width="64"
   height="64"
   fill="#111926"
   id="rect21215" /><rect
   x="1032"
   y="264"
   width="64"
   height="64"
   fill="#111926"
   id="rect21217" /><rect
   x="1096"
   y="264"
   width="64"
   height="64"
   fill="#111926"
   id="rect21219" /><rect
   x="776"
   y="328"
   width="64"
   height="64"
   fill="#111926"
   id="rect21221" /><rect
   x="840"
   y="328"
   width="64"
   height="64"
   fill="#111926"
   id="rect21223" /><rect
   x="904"
   y="328"
   width="64"
   height="64"
   fill="#111926"
   id="rect21225" /><rect
   x="712"
   y="392"
   width="64"
   height="64"
   fill="#111926"
   id="rect21227" /><rect
   x="776"
   y="392"
   width="64"
   height="64"
   fill="#111926"
   id="rect21229" /><rect
   x="904"
   y="392"
   width="64"
   height="64"
   fill="#111926"
   id="rect21231" /><rect
   x="1032"
   y="392"
   width="64"
   height="64"
   fill="#111926"
   id="rect21233" /><rect
   x="1160"
   y="392"
   width="64"
   height="64"
   fill="#111926"
   id="rect21235" /><rect
   x="1224"
   y="392"
   width="64"
   height="64"
   fill="#111926"
   id="rect21237" /><rect
   x="840"
   y="456"
   width="64"
   height="64"
   fill="#111926"
   id="rect21239" /><rect
   x="968"
   y="456"
   width="64"
   height="64"
   fill="#111926"
   id="rect21241" /><rect
   x="1160"
   y="456"
   width="64"
   height="64"
   fill="#111926"
   id="rect21243" /><rect
   x="1224"
   y="456"
   width="64"
   height="64"
   fill="#111926"
   id="rect21245" /><rect
   x="712"
   y="520"
   width="64"
   height="64"
   fill="#111926"
   id="rect21247" /><rect
   x="840"
   y="520"
   width="64"
   height="64"
   fill="#111926"
   id="rect21249" /><rect
   x="1032"
   y="520"
   width="64"
   height="64"
   fill="#111926"
   id="rect21251" /><rect
   x="1096"
   y="520"
   width="64"
   height="64"
   fill="#111926"
   id="rect21253" /><rect
   x="1160"
   y="520"
   width="64"
   height="64"
   fill="#111926"
   id="rect21255" /><rect
   x="712"
   y="584"
   width="64"
   height="64"
   fill="#111926"
   id="rect21257" /><rect
   x="840"
   y="584"
   width="64"
   height="64"
   fill="#111926"
   id="rect21259" /><rect
   x="968"
   y="584"
   width="64"
   height="64"
   fill="#111926"
   id="rect21261" /><rect
   x="1096"
   y="584"
   width="64"
   height="64"
   fill="#111926"
   id="rect21263" /><rect
   x="1224"
   y="584"
   width="64"
   height="64"
   fill="#111926"
   id="rect21265" /><rect
   x="968"
   y="648"
   width="64"
   height="64"
   fill="#111926"
   id="rect21267" /><rect
   x="1224"
   y="648"
   width="64"
   height="64"
   fill="#111926"
   id="rect21269" /><rect
   x="200"
   y="712"
   width="64"
   height="64"
   fill="#111926"
   id="rect21271" /><rect
   x="264"
   y="712"
   width="64"
   height="64"
   fill="#111926"
   id="rect21273" /><rect
   x="328"
   y="712"
   width="64"
   height="64"
   fill="#111926"
   id="rect21275" /><rect
   x="392"
   y="712"
   width="64"
   height="64"
   fill="#111926"
   id="rect21277" /><rect
   x="456"
   y="712"
   width="64"
   height="64"
   fill="#111926"
   id="rect21279" /><rect
   x="584"
   y="712"
   width="64"
   height="64"
   fill="#111926"
   id="rect21281" /><rect
   x="648"
   y="712"
   width="64"
   height="64"
   fill="#111926"
   id="rect21283" /><rect
   x="712"
   y="712"
   width="64"
   height="64"
   fill="#111926"
   id="rect21285" /><rect
   x="776"
   y="712"
   width="64"
   height="64"
   fill="#111926"
   id="rect21287" /><rect
   x="840"
   y="712"
   width="64"
   height="64"
   fill="#111926"
   id="rect21289" /><rect
   x="968"
   y="712"
   width="64"
   height="64"
   fill="#111926"
   id="rect21291" /><rect
   x="1032"
   y="712"
   width="64"
   height="64"
   fill="#111926"
   id="rect21293" /><rect
   x="1160"
   y="712"
   width="64"
   height="64"
   fill="#111926"
   id="rect21295" /><rect
   x="1288"
   y="712"
   width="64"
   height="64"
   fill="#111926"
   id="rect21297" /><rect
   x="1416"
   y="712"
   width="64"
   height="64"
   fill="#111926"
   id="rect21299" /><rect
   x="1544"
   y="712"
   width="64"
   height="64"
   fill="#111926"
   id="rect21301" /><rect
   x="1672"
   y="712"
   width="64"
   height="64"
   fill="#111926"
   id="rect21303" /><rect
   x="200"
   y="776"
   width="64"
   height="64"
   fill="#111926"
   id="rect21305" /><rect
   x="328"
   y="776"
   width="64"
   height="64"
   fill="#111926"
   id="rect21307" /><rect
   x="520"
   y="776"
   width="64"
   height="64"
   fill="#111926"
   id="rect21309" /><rect
   x="648"
   y="776"
   width="64"
   height="64"
   fill="#111926"
   id="rect21311" /><rect
   x="712"
   y="776"
   width="64"
   height="64"
   fill="#111926"
   id="rect21313" /><rect
   x="776"
   y="776"
   width="64"
   height="64"
   fill="#111926"
   id="rect21315" /><rect
   x="1096"
   y="776"
   width="64"
   height="64"
   fill="#111926"
   id="rect21317" /><rect
   x="1160"
   y="776"
   width="64"
   height="64"
   fill="#111926"
   id="rect21319" /><rect
   x="1224"
   y="776"
   width="64"
   height="64"
   fill="#111926"
   id="rect21321" /><rect
   x="1288"
   y="776"
   width="64"
   height="64"
   fill="#111926"
   id="rect21323" /><rect
   x="1416"
   y="776"
   width="64"
   height="64"
   fill="#111926"
   id="rect21325" /><rect
   x="1480"
   y="776"
   width="64"
   height="64"
   fill="#111926"
   id="rect21327" /><rect
   x="1736"
   y="776"
   width="64"
   height="64"
   fill="#111926"
   id="rect21329" /><rect
   x="264"
   y="840"
   width="64"
   height="64"
   fill="#111926"
   id="rect21331" /><rect
   x="456"
   y="840"
   width="64"
   height="64"
   fill="#111926"
   id="rect21333" /><rect
   x="584"
   y="840"
   width="64"
   height="64"
   fill="#111926"
   id="rect21335" /><rect
   x="776"
   y="840"
   width="64"
   height="64"
   fill="#111926"
   id="rect21337" /><rect
   x="904"
   y="840"
   width="64"
   height="64"
   fill="#111926"
   id="rect21339" /><rect
   x="968"
   y="840"
   width="64"
   height="64"
   fill="#111926"
   id="rect21341" /><rect
   x="1096"
   y="840"
   width="64"
   height="64"
   fill="#111926"
   id="rect21343" /><rect
   x="1160"
   y="840"
   width="64"
   height="64"
   fill="#111926"
   id="rect21345" /><rect
   x="1288"
   y="840"
   width="64"
   height="64"
   fill="#111926"
   id="rect21347" /><rect
   x="1352"
   y="840"
   width="64"
   height="64"
   fill="#111926"
   id="rect21349" /><rect
   x="1480"
   y="840"
   width="64"
   height="64"
   fill="#111926"
   id="rect21351" /><rect
   x="1608"
   y="840"
   width="64"
   height="64"
   fill="#111926"
   id="rect21353" /><rect
   x="264"
   y="904"
   width="64"
   height="64"
   fill="#111926"
   id="rect21355" /><rect
   x="776"
   y="904"
   width="64"
   height="64"
   fill="#111926"
   id="rect21357" /><rect
   x="840"
   y="904"
   width="64"
   height="64"
   fill="#111926"
   id="rect21359" /><rect
   x="904"
   y="904"
   width="64"
   height="64"
   fill="#111926"
   id="rect21361" /><rect
   x="1032"
   y="904"
   width="64"
   height="64"
   fill="#111926"
   id="rect21363" /><rect
   x="1096"
   y="904"
   width="64"
   height="64"
   fill="#111926"
   id="rect21365" /><rect
   x="1224"
   y="904"
   width="64"
   height="64"
   fill="#111926"
   id="rect21367" /><rect
   x="1288"
   y="904"
   width="64"
   height="64"
   fill="#111926"
   id="rect21369" /><rect
   x="264"
   y="968"
   width="64"
   height="64"
   fill="#111926"
   id="rect21371" /><rect
   x="520"
   y="968"
   width="64"
   height="64"
   fill="#111926"
   id="rect21373" /><rect
   x="584"
   y="968"
   width="64"
   height="64"
   fill="#111926"
   id="rect21375" /><rect
   x="648"
   y="968"
   width="64"
   height="64"
   fill="#111926"
   id="rect21377" /><rect
   x="712"
   y="968"
   width="64"
   height="64"
   fill="#111926"
   id="rect21379" /><rect
   x="776"
   y="968"
   width="64"
   height="64"
   fill="#111926"
   id="rect21381" /><rect
   x="904"
   y="968"
   width="64"
   height="64"
   fill="#111926"
   id="rect21383" /><rect
   x="1160"
   y="968"
   width="64"
   height="64"
   fill="#111926"
   id="rect21385" /><rect
   x="1352"
   y="968"
   width="64"
   height="64"
   fill="#111926"
   id="rect21387" /><rect
   x="1416"
   y="968"
   width="64"
   height="64"
   fill="#111926"
   id="rect21389" /><rect
   x="1480"
   y="968"
   width="64"
   height="64"
   fill="#111926"
   id="rect21391" /><rect
   x="1544"
   y="968"
   width="64"
   height="64"
   fill="#111926"
   id="rect21393" /><rect
   x="1672"
   y="968"
   width="64"
   height="64"
   fill="#111926"
   id="rect21395" /><rect
   x="1736"
   y="968"
   width="64"
   height="64"
   fill="#111926"
   id="rect21397" /><rect
   x="200"
   y="1032"
   width="64"
   height="64"
   fill="#111926"
   id="rect21399" /><rect
   x="264"
   y="1032"
   width="64"
   height="64"
   fill="#111926"
   id="rect21401" /><rect
   x="328"
   y="1032"
   width="64"
   height="64"
   fill="#111926"
   id="rect21403" /><rect
   x="392"
   y="1032"
   width="64"
   height="64"
   fill="#111926"
   id="rect21405" /><rect
   x="520"
   y="1032"
   width="64"
   height="64"
   fill="#111926"
   id="rect21407" /><rect
   x="648"
   y="1032"
   width="64"
   height="64"
   fill="#111926"
   id="rect21409" /><rect
   x="840"
   y="1032"
   width="64"
   height="64"
   fill="#111926"
   id="rect21411" /><rect
   x="968"
   y="1032"
   width="64"
   height="64"
   fill="#111926"
   id="rect21413" /><rect
   x="1096"
   y="1032"
   width="64"
   height="64"
   fill="#111926"
   id="rect21415" /><rect
   x="1224"
   y="1032"
   width="64"
   height="64"
   fill="#111926"
   id="rect21417" /><rect
   x="1288"
   y="1032"
   width="64"
   height="64"
   fill="#111926"
   id="rect21419" /><rect
   x="1352"
   y="1032"
   width="64"
   height="64"
   fill="#111926"
   id="rect21421" /><rect
   x="1416"
   y="1032"
   width="64"
   height="64"
   fill="#111926"
   id="rect21423" /><rect
   x="1480"
   y="1032"
   width="64"
   height="64"
   fill="#111926"
   id="rect21425" /><rect
   x="200"
   y="1096"
   width="64"
   height="64"
   fill="#111926"
   id="rect21427" /><rect
   x="456"
   y="1096"
   width="64"
   height="64"
   fill="#111926"
   id="rect21429" /><rect
   x="520"
   y="1096"
   width="64"
   height="64"
   fill="#111926"
   id="rect21431" /><rect
   x="584"
   y="1096"
   width="64"
   height="64"
   fill="#111926"
   id="rect21433" /><rect
   x="648"
   y="1096"
   width="64"
   height="64"
   fill="#111926"
   id="rect21435" /><rect
   x="776"
   y="1096"
   width="64"
   height="64"
   fill="#111926"
   id="rect21437" /><rect
   x="840"
   y="1096"
   width="64"
   height="64"
   fill="#111926"
   id="rect21439" /><rect
   x="1096"
   y="1096"
   width="64"
   height="64"
   fill="#111926"
   id="rect21441" /><rect
   x="1288"
   y="1096"
   width="64"
   height="64"
   fill="#111926"
   id="rect21443" /><rect
   x="1352"
   y="1096"
   width="64"
   height="64"
   fill="#111926"
   id="rect21445" /><rect
   x="1480"
   y="1096"
   width="64"
   height="64"
   fill="#111926"
   id="rect21447" /><rect
   x="1608"
   y="1096"
   width="64"
   height="64"
   fill="#111926"
   id="rect21449" /><rect
   x="1672"
   y="1096"
   width="64"
   height="64"
   fill="#111926"
   id="rect21451" /><rect
   x="1736"
   y="1096"
   width="64"
   height="64"
   fill="#111926"
   id="rect21453" /><rect
   x="200"
   y="1160"
   width="64"
   height="64"
   fill="#111926"
   id="rect21455" /><rect
   x="328"
   y="1160"
   width="64"
   height="64"
   fill="#111926"
   id="rect21457" /><rect
   x="392"
   y="1160"
   width="64"
   height="64"
   fill="#111926"
   id="rect21459" /><rect
   x="456"
   y="1160"
   width="64"
   height="64"
   fill="#111926"
   id="rect21461" /><rect
   x="648"
   y="1160"
   width="64"
   height="64"
   fill="#111926"
   id="rect21463" /><rect
   x="712"
   y="1160"
   width="64"
   height="64"
   fill="#111926"
   id="rect21465" /><rect
   x="968"
   y="1160"
   width="64"
   height="64"
   fill="#111926"
   id="rect21467" /><rect
   x="1096"
   y="1160"
   width="64"
   height="64"
   fill="#111926"
   id="rect21469" /><rect
   x="1288"
   y="1160"
   width="64"
   height="64"
   fill="#111926"
   id="rect21471" /><rect
   x="1672"
   y="1160"
   width="64"
   height="64"
   fill="#111926"
   id="rect21473" /><rect
   x="1736"
   y="1160"
   width="64"
   height="64"
   fill="#111926"
   id="rect21475" /><rect
   x="200"
   y="1224"
   width="64"
   height="64"
   fill="#111926"
   id="rect21477" /><rect
   x="456"
   y="1224"
   width="64"
   height="64"
   fill="#111926"
   id="rect21479" /><rect
   x="584"
   y="1224"
   width="64"
   height="64"
   fill="#111926"
   id="rect21481" /><rect
   x="968"
   y="1224"
   width="64"
   height="64"
   fill="#111926"
   id="rect21483" /><rect
   x="1032"
   y="1224"
   width="64"
   height="64"
   fill="#111926"
   id="rect21485" /><rect
   x="1096"
   y="1224"
   width="64"
   height="64"
   fill="#111926"
   id="rect21487" /><rect
   x="1160"
   y="1224"
   width="64"
   height="64"
   fill="#111926"
   id="rect21489" /><rect
   x="1224"
   y="1224"
   width="64"
   height="64"
   fill="#111926"
   id="rect21491" /><rect
   x="1288"
   y="1224"
   width="64"
   height="64"
   fill="#111926"
   id="rect21493" /><rect
   x="1352"
   y="1224"
   width="64"
   height="64"
   fill="#111926"
   id="rect21495" /><rect
   x="1416"
   y="1224"
   width="64"
   height="64"
   fill="#111926"
   id="rect21497" /><rect
   x="1480"
   y="1224"
   width="64"
   height="64"
   fill="#111926"
   id="rect21499" /><rect
   x="1544"
   y="1224"
   width="64"
   height="64"
   fill="#111926"
   id="rect21501" /><rect
   x="1736"
   y="1224"
   width="64"
   height="64"
   fill="#111926"
   id="rect21503" /><rect
   x="712"
   y="1288"
   width="64"
   height="64"
   fill="#111926"
   id="rect21505" /><rect
   x="776"
   y="1288"
   width="64"
   height="64"
   fill="#111926"
   id="rect21507" /><rect
   x="840"
   y="1288"
   width="64"
   height="64"
   fill="#111926"
   id="rect21509" /><rect
   x="1224"
   y="1288"
   width="64"
   height="64"
   fill="#111926"
   id="rect21511" /><rect
   x="1480"
   y="1288"
   width="64"
   height="64"
   fill="#111926"
   id="rect21513" /><rect
   x="1736"
   y="1288"
   width="64"
   height="64"
   fill="#111926"
   id="rect21515" /><rect
   x="712"
   y="1352"
   width="64"
   height="64"
   fill="#111926"
   id="rect21517" /><rect
   x="776"
   y="1352"
   width="64"
   height="64"
   fill="#111926"
   id="rect21519" /><rect
   x="904"
   y="1352"
   width="64"
   height="64"
   fill="#111926"
   id="rect21521" /><rect
   x="968"
   y="1352"
   width="64"
   height="64"
   fill="#111926"
   id="rect21523" /><rect
   x="1096"
   y="1352"
   width="64"
   height="64"
   fill="#111926"
   id="rect21525" /><rect
   x="1224"
   y="1352"
   width="64"
   height="64"
   fill="#111926"
   id="rect21527" /><rect
   x="1352"
   y="1352"
   width="64"
   height="64"
   fill="#111926"
   id="rect21529" /><rect
   x="1480"
   y="1352"
   width="64"
   height="64"
   fill="#111926"
   id="rect21531" /><rect
   x="1608"
   y="1352"
   width="64"
   height="64"
   fill="#111926"
   id="rect21533" /><rect
   x="1672"
   y="1352"
   width="64"
   height="64"
   fill="#111926"
   id="rect21535" /><rect
   x="1736"
   y="1352"
   width="64"
   height="64"
   fill="#111926"
   id="rect21537" /><rect
   x="904"
   y="1416"
   width="64"
   height="64"
   fill="#111926"
   id="rect21539" /><rect
   x="1224"
   y="1416"
   width="64"
   height="64"
   fill="#111926"
   id="rect21541" /><rect
   x="1480"
   y="1416"
   width="64"
   height="64"
   fill="#111926"
   id="rect21543" /><rect
   x="1544"
   y="1416"
   width="64"
   height="64"
   fill="#111926"
   id="rect21545" /><rect
   x="712"
   y="1480"
   width="64"
   height="64"
   fill="#111926"
   id="rect21547" /><rect
   x="904"
   y="1480"
   width="64"
   height="64"
   fill="#111926"
   id="rect21549" /><rect
   x="968"
   y="1480"
   width="64"
   height="64"
   fill="#111926"
   id="rect21551" /><rect
   x="1032"
   y="1480"
   width="64"
   height="64"
   fill="#111926"
   id="rect21553" /><rect
   x="1096"
   y="1480"
   width="64"
   height="64"
   fill="#111926"
   id="rect21555" /><rect
   x="1224"
   y="1480"
   width="64"
   height="64"
   fill="#111926"
   id="rect21557" /><rect
   x="1288"
   y="1480"
   width="64"
   height="64"
   fill="#111926"
   id="rect21559" /><rect
   x="1352"
   y="1480"
   width="64"
   height="64"
   fill="#111926"
   id="rect21561" /><rect
   x="1416"
   y="1480"
   width="64"
   height="64"
   fill="#111926"
   id="rect21563" /><rect
   x="1480"
   y="1480"
   width="64"
   height="64"
   fill="#111926"
   id="rect21565" /><rect
   x="1544"
   y="1480"
   width="64"
   height="64"
   fill="#111926"
   id="rect21567" /><rect
   x="712"
   y="1544"
   width="64"
   height="64"
   fill="#111926"
   id="rect21569" /><rect
   x="840"
   y="1544"
   width="64"
   height="64"
   fill="#111926"
   id="rect21571" /><rect
   x="968"
   y="1544"
   width="64"
   height="64"
   fill="#111926"
   id="rect21573" /><rect
   x="1160"
   y="1544"
   width="64"
   height="64"
   fill="#111926"
   id="rect21575" /><rect
   x="1224"
   y="1544"
   width="64"
   height="64"
   fill="#111926"
   id="rect21577" /><rect
   x="1352"
   y="1544"
   width="64"
   height="64"
   fill="#111926"
   id="rect21579" /><rect
   x="1480"
   y="1544"
   width="64"
   height="64"
   fill="#111926"
   id="rect21581" /><rect
   x="1672"
   y="1544"
   width="64"
   height="64"
   fill="#111926"
   id="rect21583" /><rect
   x="1736"
   y="1544"
   width="64"
   height="64"
   fill="#111926"
   id="rect21585" /><rect
   x="712"
   y="1608"
   width="64"
   height="64"
   fill="#111926"
   id="rect21587" /><rect
   x="776"
   y="1608"
   width="64"
   height="64"
   fill="#111926"
   id="rect21589" /><rect
   x="968"
   y="1608"
   width="64"
   height="64"
   fill="#111926"
   id="rect21591" /><rect
   x="1032"
   y="1608"
   width="64"
   height="64"
   fill="#111926"
   id="rect21593" /><rect
   x="1480"
   y="1608"
   width="64"
   height="64"
   fill="#111926"
   id="rect21595" /><rect
   x="1608"
   y="1608"
   width="64"
   height="64"
   fill="#111926"
   id="rect21597" /><rect
   x="1736"
   y="1608"
   width="64"
   height="64"
   fill="#111926"
   id="rect21599" /><rect
   x="712"
   y="1672"
   width="64"
   height="64"
   fill="#111926"
   id="rect21601" /><rect
   x="776"
   y="1672"
   width="64"
   height="64"
   fill="#111926"
   id="rect21603" /><rect
   x="840"
   y="1672"
   width="64"
   height="64"
   fill="#111926"
   id="rect21605" /><rect
   x="968"
   y="1672"
   width="64"
   height="64"
   fill="#111926"
   id="rect21607" /><rect
   x="1032"
   y="1672"
   width="64"
   height="64"
   fill="#111926"
   id="rect21609" /><rect
   x="1096"
   y="1672"
   width="64"
   height="64"
   fill="#111926"
   id="rect21611" /><rect
   x="1224"
   y="1672"
   width="64"
   height="64"
   fill="#111926"
   id="rect21613" /><rect
   x="1288"
   y="1672"
   width="64"
   height="64"
   fill="#111926"
   id="rect21615" /><rect
   x="1352"
   y="1672"
   width="64"
   height="64"
   fill="#111926"
   id="rect21617" /><rect
   x="1416"
   y="1672"
   width="64"
   height="64"
   fill="#111926"
   id="rect21619" /><rect
   x="1480"
   y="1672"
   width="64"
   height="64"
   fill="#111926"
   id="rect21621" /><rect
   x="1544"
   y="1672"
   width="64"
   height="64"
   fill="#111926"
   id="rect21623" /><rect
   x="1672"
   y="1672"
   width="64"
   height="64"
   fill="#111926"
   id="rect21625" /><rect
   x="712"
   y="1736"
   width="64"
   height="64"
   fill="#111926"
   id="rect21627" /><rect
   x="776"
   y="1736"
   width="64"
   height="64"
   fill="#111926"
   id="rect21629" /><rect
   x="840"
   y="1736"
   width="64"
   height="64"
   fill="#111926"
   id="rect21631" /><rect
   x="1160"
   y="1736"
   width="64"
   height="64"
   fill="#111926"
   id="rect21633" /><rect
   x="1608"
   y="1736"
   width="64"
   height="64"
   fill="#111926"
   id="rect21635" /><rect
   x="1672"
   y="1736"
   width="64"
   height="64"
   fill="#111926"
   id="rect21637" /><rect
   x="1736"
   y="1736"
   width="64"
   height="64"
   fill="#111926"
   id="rect21639" /><svg
   version="1.1"
   id="Ebene_1"
   x="200"
   y="200"
   viewBox="0 0 700 700"
   style="enable-background:new 0 0 700 700;"
   xml:space="preserve"
   width="448"
   height="448"
   shape-rendering="auto">

<path
   fill="#111920"
   d="M21.2-0.1C9.5-0.1-0.1,9.5-0.1,21.2v78.8v100v100v100v100v100v78.8c0,11.7,9.5,21.3,21.3,21.3h657.6  c11.7,0,21.3-9.5,21.3-21.3V600V500V400V300V200v-100V21.2c0-11.7-9.5-21.3-21.3-21.3H21.2z M600,200v100v100v100v87.8  c0,6.8-5.5,12.2-12.2,12.2H112.2c-6.8,0-12.2-5.5-12.2-12.2V500V400V300V200v-87.8c0-6.8,5.5-12.2,12.2-12.2h475.6  c6.8,0,12.2,5.5,12.2,12.2V200z"
   id="path21641" />
</svg>
<svg
   version="1.1"
   id="svg21646"
   x="200"
   y="200"
   viewBox="0 0 700 700"
   style="enable-background:new 0 0 700 700;"
   xml:space="preserve"
   width="448"
   height="448"
   shape-rendering="auto">

<path
   fill="#111920"
   d="M500,400V300v-78.8c0-11.7-9.5-21.3-21.3-21.3H221.2c-11.7,0-21.3,9.5-21.3,21.3V300v100v78.8    c0,11.7,9.5,21.3,21.3,21.3h257.5c11.7,0,21.3-9.5,21.3-21.3V400z"
   id="path21644" />
</svg>
<svg
   version="1.1"
   id="svg21650"
   x="1352"
   y="200"
   viewBox="0 0 700 700"
   style="enable-background:new 0 0 700 700;"
   xml:space="preserve"
   width="448"
   height="448"
   shape-rendering="auto">

<path
   fill="#111920"
   d="M21.2-0.1C9.5-0.1-0.1,9.5-0.1,21.2v78.8v100v100v100v100v100v78.8c0,11.7,9.5,21.3,21.3,21.3h657.6  c11.7,0,21.3-9.5,21.3-21.3V600V500V400V300V200v-100V21.2c0-11.7-9.5-21.3-21.3-21.3H21.2z M600,200v100v100v100v87.8  c0,6.8-5.5,12.2-12.2,12.2H112.2c-6.8,0-12.2-5.5-12.2-12.2V500V400V300V200v-87.8c0-6.8,5.5-12.2,12.2-12.2h475.6  c6.8,0,12.2,5.5,12.2,12.2V200z"
   id="path21648" />
</svg>
<svg
   version="1.1"
   id="svg21654"
   x="1352"
   y="200"
   viewBox="0 0 700 700"
   style="enable-background:new 0 0 700 700;"
   xml:space="preserve"
   width="448"
   height="448"
   shape-rendering="auto">

<path
   fill="#111920"
   d="M500,400V300v-78.8c0-11.7-9.5-21.3-21.3-21.3H221.2c-11.7,0-21.3,9.5-21.3,21.3V300v100v78.8    c0,11.7,9.5,21.3,21.3,21.3h257.5c11.7,0,21.3-9.5,21.3-21.3V400z"
   id="path21652" />
</svg>
<svg
   version="1.1"
   id="svg21658"
   x="200"
   y="1352"
   viewBox="0 0 700 700"
   style="enable-background:new 0 0 700 700;"
   xml:space="preserve"
   width="448"
   height="448"
   shape-rendering="auto">

<path
   fill="#111920"
   d="M21.2-0.1C9.5-0.1-0.1,9.5-0.1,21.2v78.8v100v100v100v100v100v78.8c0,11.7,9.5,21.3,21.3,21.3h657.6  c11.7,0,21.3-9.5,21.3-21.3V600V500V400V300V200v-100V21.2c0-11.7-9.5-21.3-21.3-21.3H21.2z M600,200v100v100v100v87.8  c0,6.8-5.5,12.2-12.2,12.2H112.2c-6.8,0-12.2-5.5-12.2-12.2V500V400V300V200v-87.8c0-6.8,5.5-12.2,12.2-12.2h475.6  c6.8,0,12.2,5.5,12.2,12.2V200z"
   id="path21656" />
</svg>
<svg
   version="1.1"
   id="svg21662"
   x="200"
   y="1352"
   viewBox="0 0 700 700"
   style="enable-background:new 0 0 700 700;"
   xml:space="preserve"
   width="448"
   height="448"
   shape-rendering="auto">

<path
   fill="#111920"
   d="M500,400V300v-78.8c0-11.7-9.5-21.3-21.3-21.3H221.2c-11.7,0-21.3,9.5-21.3,21.3V300v100v78.8    c0,11.7,9.5,21.3,21.3,21.3h257.5c11.7,0,21.3-9.5,21.3-21.3V400z"
   id="path21660" />
</svg>
</svg>

<path
   id="FrameBody"
   class="frame-color"
   d="M13.7,346.6h251.7c7.6,0,13.7-6.2,13.7-13.7V13.7c0-7.6-6.2-13.7-13.7-13.7H13.8C6.2,0,0.1,6.2,0,13.7  v319.2C0,340.5,6.2,346.6,13.7,346.6z M10.6,17.9c0-4.1,3.3-7.4,7.4-7.4h243.2c4.1,0,7.4,3.3,7.4,7.4v243.3c0,4.1-3.3,7.4-7.4,7.4  H18c-4.1,0-7.4-3.3-7.4-7.4V17.9z" /><text
   xml:space="preserve"
   transform="translate(-21.21733,-90.920907)"
   id="text6218"
   style="font-style:normal;font-variant:normal;font-weight:normal;font-stretch:normal;font-size:26.6667px;line-height:1.25;font-family:sans-serif;-inkscape-font-specification:'sans-serif, Normal';font-variant-ligatures:normal;font-variant-caps:normal;font-variant-numeric:normal;font-variant-east-asian:normal;white-space:pre;shape-inside:url(#rect6220);fill:#000000;fill-opacity:1;stroke:none"><tspan
     x="32.804688"
     y="403.6291"
     id="tspan36267"><tspan
       style="font-weight:100;font-size:33.3333px;font-family:Manjari;-inkscape-font-specification:'Manjari, Thin';fill:#ffffff"
       id="tspan36265">base64converter</tspan></tspan></text>


</svg>
