<?xml version="1.0" encoding="UTF-8" standalone="no"?>
<svg
   viewBox="0 0 512 512"
   version="1.1"
   id="svg75"
   sodipodi:docname="typewriter_two.svg"
   inkscape:version="1.1 (ce6663b3b7, 2021-05-25)"
   xmlns:inkscape="http://www.inkscape.org/namespaces/inkscape"
   xmlns:sodipodi="http://sodipodi.sourceforge.net/DTD/sodipodi-0.dtd"
   xmlns:xlink="http://www.w3.org/1999/xlink"
   xmlns="http://www.w3.org/2000/svg"
   xmlns:svg="http://www.w3.org/2000/svg">
  <defs
     id="defs79">
    <linearGradient
       id="linearGradient1738"
       inkscape:swatch="solid">
      <stop
         style="stop-color:#f1f1f1;stop-opacity:0.73000002;"
         offset="0"
         id="stop1736" />
    </linearGradient>
    <linearGradient
       inkscape:collect="always"
       xlink:href="#linearGradient1738"
       id="linearGradient1740"
       x1="0"
       y1="255.99997"
       x2="512"
       y2="255.99997"
       gradientUnits="userSpaceOnUse" />
  </defs>
  <sodipodi:namedview
     id="namedview77"
     pagecolor="#505050"
     bordercolor="#eeeeee"
     borderopacity="1"
     inkscape:pageshadow="0"
     inkscape:pageopacity="0"
     inkscape:pagecheckerboard="0"
     showgrid="false"
     inkscape:zoom="1.2111966"
     inkscape:cx="258.83495"
     inkscape:cy="298.87799"
     inkscape:window-width="1776"
     inkscape:window-height="1161"
     inkscape:window-x="770"
     inkscape:window-y="75"
     inkscape:window-maximized="0"
     inkscape:current-layer="g73" />
  <g
     id="g73">
    <path
       fill="currentColor"
       d="M368 96a16 16 0 0 1-16-16V0H88a23.94 23.94 0 0 0-24 23.88V192h82.75a32 32 0 0 1 22.62 9.37l13.26 13.26a32 32 0 0 0 22.62 9.37h101.5a32 32 0 0 0 22.62-9.37l13.26-13.26a32 32 0 0 1 22.62-9.37H448V96z"
       id="path69"
       style="fill:#055185;fill-opacity:1;fill-rule:evenodd" />
    <path
       d="M368 96h80v-4.58a17.92 17.92 0 0 0-5.25-12.67l-73.43-73.5A18 18 0 0 0 356.57 0H352v80a16 16 0 0 0 16 16zm112 96H365.25a32 32 0 0 0-22.62 9.37l-13.26 13.26a32 32 0 0 1-22.62 9.37h-101.5a32 32 0 0 1-22.62-9.37l-13.26-13.26a32 32 0 0 0-22.62-9.37H32a32 32 0 0 0-32 32v32a32 32 0 0 0 32 32v160a64 64 0 0 0 64 64h320a64 64 0 0 0 64-64V288a32 32 0 0 0 32-32v-32a32 32 0 0 0-32-32zM336 296a8 8 0 0 1 8-8h16a8 8 0 0 1 8 8v16a8 8 0 0 1-8 8h-16a8 8 0 0 1-8-8zm-24 56h16a8 8 0 0 1 8 8v16a8 8 0 0 1-8 8h-16a8 8 0 0 1-8-8v-16a8 8 0 0 1 8-8zm-40-56a8 8 0 0 1 8-8h16a8 8 0 0 1 8 8v16a8 8 0 0 1-8 8h-16a8 8 0 0 1-8-8zm-24 56h16a8 8 0 0 1 8 8v16a8 8 0 0 1-8 8h-16a8 8 0 0 1-8-8v-16a8 8 0 0 1 8-8zm-40-56a8 8 0 0 1 8-8h16a8 8 0 0 1 8 8v16a8 8 0 0 1-8 8h-16a8 8 0 0 1-8-8zm-24 56h16a8 8 0 0 1 8 8v16a8 8 0 0 1-8 8h-16a8 8 0 0 1-8-8v-16a8 8 0 0 1 8-8zm-40-56a8 8 0 0 1 8-8h16a8 8 0 0 1 8 8v16a8 8 0 0 1-8 8h-16a8 8 0 0 1-8-8zm-40 24H88a8 8 0 0 1-8-8v-16a8 8 0 0 1 8-8h16a8 8 0 0 1 8 8v16a8 8 0 0 1-8 8zm32 64h-16a8 8 0 0 1-8-8v-16a8 8 0 0 1 8-8h16a8 8 0 0 1 8 8v16a8 8 0 0 1-8 8zm232 56a8 8 0 0 1-8 8H152a8 8 0 0 1-8-8v-16a8 8 0 0 1 8-8h208a8 8 0 0 1 8 8zm32-64a8 8 0 0 1-8 8h-16a8 8 0 0 1-8-8v-16a8 8 0 0 1 8-8h16a8 8 0 0 1 8 8zm32-64a8 8 0 0 1-8 8h-16a8 8 0 0 1-8-8v-16a8 8 0 0 1 8-8h16a8 8 0 0 1 8 8z"
       id="path71"
       style="fill-opacity:1;fill:url(#linearGradient1740)" />
  </g>
</svg>
